<svg xmlns="http://www.w3.org/2000/svg" xmlns:xlink="http://www.w3.org/1999/xlink" viewBox="0,0,256,256" width="48px" height="48px" fill-rule="nonzero"><g fill="#ffffff" fill-rule="nonzero" stroke="none" stroke-width="1" stroke-linecap="butt" stroke-linejoin="miter" stroke-miterlimit="10" stroke-dasharray="" stroke-dashoffset="0" font-family="none" font-weight="none" font-size="none" text-anchor="none" style="mix-blend-mode: normal"><g transform="scale(10.66667,10.66667)"><path d="M3,11l18,-7l-3,16l-5,-3l-3.125,1.5l-1.875,-4.5z" opacity="0.3"></path><path d="M21.45,3.377c-0.485,-0.415 -1.209,-0.492 -1.935,-0.205c-0.45,0.177 -7.501,3.144 -14.074,5.911l-2.171,0.914c-0.841,0.341 -1.267,0.894 -1.267,1.641c0,0.523 0.222,1.234 1.278,1.652l3.667,1.467c0.317,0.951 1.053,3.159 1.238,3.746c0.11,0.348 0.388,1.225 1.09,1.43c0.144,0.049 0.294,0.074 0.447,0.074c0.443,0 0.762,-0.206 0.918,-0.326l2.329,-1.97l2.831,2.617c0.109,0.111 0.685,0.672 1.46,0.672c0.967,0 1.701,-0.805 1.854,-1.584c0.083,-0.427 2.812,-14.129 2.812,-14.127c0.245,-1.099 -0.194,-1.669 -0.477,-1.912zM17.166,18.866l-4.137,-3.826l-3.03,2.565c-0.359,-1.107 -1.301,-3.922 -1.301,-3.922l-0.146,-0.439l-4.021,-1.608l1.687,-0.709c4.299,-1.81 11.956,-5.033 13.692,-5.755c-0.377,1.89 -2.432,12.207 -2.744,13.694z"></path><path d="M16.8,8c-0.125,0 -0.294,0.119 -0.384,0.175c-1.288,0.803 -7.746,4.478 -9.517,5.484c0.499,0.2 0.851,0.341 0.851,0.341c0,0 1.151,3.445 1.39,4.2c0.239,0.756 0.431,0.774 0.431,0.774c0.053,0.023 0.105,0.032 0.153,0.032c0.039,0 0.066,-0.014 0.099,-0.023l1.177,-4.608c0,0 5.363,-5.428 5.686,-5.744c0.26,-0.253 0.314,-0.342 0.314,-0.43c0,-0.117 -0.061,-0.201 -0.2,-0.201z"></path></g></g></svg>