<?xml version="1.0" standalone="no"?>
<!DOCTYPE svg PUBLIC "-//W3C//DTD SVG 20010904//EN"
 "http://www.w3.org/TR/2001/REC-SVG-20010904/DTD/svg10.dtd">
<svg version="1.0" xmlns="http://www.w3.org/2000/svg"
 width="300.000000pt" height="162.000000pt" viewBox="0 0 300.000000 162.000000"
 preserveAspectRatio="xMidYMid meet">

<g transform="translate(0.000000,162.000000) scale(0.100000,-0.100000)"
fill="#000000" stroke="none">
<path d="M1210 1603 c-188 -17 -274 -28 -390 -49 -349 -63 -618 -166 -738
-283 -60 -58 -75 -93 -70 -162 5 -73 40 -125 122 -184 194 -137 503 -226 956
-277 175 -19 680 -16 865 6 403 47 708 134 886 252 264 175 189 373 -198 524
-195 77 -476 137 -770 165 -131 13 -559 18 -663 8z m60 -88 c0 -7 -393 -333
-482 -400 -80 -60 -154 -90 -199 -81 -49 9 -139 58 -165 89 -77 91 29 196 287
281 125 41 296 80 439 100 58 8 108 14 113 15 4 1 7 -1 7 -4z m653 -21 c299
-44 566 -140 652 -235 65 -72 39 -136 -79 -194 -127 -63 -162 -49 -447 187
-102 84 -213 176 -247 203 -33 28 -61 53 -61 58 -1 8 13 6 182 -19z m-334
-177 c66 -40 307 -231 320 -255 12 -22 -32 -95 -68 -114 -18 -10 -100 -13
-330 -13 -168 0 -318 3 -333 8 -37 10 -95 94 -81 116 24 38 263 226 347 272
58 32 67 31 145 -14z"/>
<path d="M27 372 c-14 -16 -17 -43 -17 -174 0 -137 2 -157 18 -171 16 -15 49
-17 254 -17 l236 0 4 40 4 40 -218 0 -218 0 0 110 0 110 214 0 214 0 4 40 4
40 -242 0 c-221 0 -242 -2 -257 -18z"/>
<path d="M600 200 l0 -190 45 0 45 0 0 75 0 75 175 0 175 0 0 -75 0 -75 45 0
45 0 0 190 0 190 -45 0 -45 0 0 -75 0 -75 -175 0 -175 0 0 75 0 75 -45 0 -45
0 0 -190z"/>
<path d="M1232 374 c-21 -15 -22 -21 -22 -173 0 -140 2 -160 18 -174 16 -15
49 -17 258 -17 l239 0 0 40 0 40 -218 0 -218 0 3 33 3 32 198 3 197 2 0 40 0
40 -200 0 -200 0 0 35 0 35 218 0 218 0 -1 40 0 40 -235 0 c-197 0 -239 -3
-258 -16z"/>
<path d="M1800 200 l0 -190 45 0 45 0 0 110 c0 61 2 110 5 110 4 0 69 -50 145
-110 l139 -111 71 3 71 3 -97 75 -97 75 69 3 c97 3 111 8 130 44 21 40 15 129
-11 158 -17 19 -30 20 -267 20 l-248 0 0 -190z m460 75 l0 -35 -185 0 -185 0
0 35 0 35 185 0 185 0 0 -35z"/>
<path d="M2495 263 l135 -128 0 -62 0 -63 45 0 45 0 0 63 0 64 135 126 135
127 -63 0 -62 0 -95 -89 -95 -88 -96 88 -97 89 -61 0 -61 0 135 -127z"/>
</g>
</svg>
